# xmcd
#
# Track frame offsets:
#	150
#	14862
#	28650
#	42319
#	55762
#	68488
#	81914
#	95437
#	108894
#	123452
#	137267
#	150301
#	164177
#	176903
#	190194
#	205112
#	218907
#	231698
#	246288
#	261939
#	274764
#	288769
#	301429
#	315289
#	328163
#
# Disc length: 4559 seconds
#
# Revision: 3
# Processed by: cddbd v1.5.2PL0 Copyright (c) Steve Scherf et al.
# Submitted via: EZCDAudioConverter 3.1.0.1
#
DISCID=6d11cd19
DTITLE=Memphis Minnie - Queen Of Country Blues
DYEAR=1933
DGENRE=Blues
TTITLE0=Jailhouse Trouble Blues
TTITLE1=Outdoor Blues
TTITLE2=Where Is My Good Man
TTITLE3=You Stole My Cake
TTITLE4=Kind Treatment Blues
TTITLE5=Socket Blues
TTITLE6=My Butcher Man
TTITLE7=Too Late
TTITLE8=Ain't No Use Trying To Tell On Me
TTITLE9=Stinging Snake Blues
TTITLE10=Drunken Barrel House Blues
TTITLE11=You Got To Move: Part 1
TTITLE12=Keep It To Yourself
TTITLE13=Keep It To Yourself [Alternate Take]
TTITLE14=Chickasaw Train Blues (Low Down Dirty Thing)
TTITLE15=Banana Man Blues (I Don't Want That Thing)
TTITLE16=You Got To Move: Part 2
TTITLE17=Hole In The Wall
TTITLE18=Give It To Me In My Hand (Can I Go Home With You)
TTITLE19=Squat It
TTITLE20=Moaning The Blues
TTITLE21=Dirty Mother For You
TTITLE22=Sylvester And His Mule Blues
TTITLE23=When You're Asleep
TTITLE24=You Can't Give It Away
EXTD=
EXTT0=
EXTT1=
EXTT2=
EXTT3=
EXTT4=
EXTT5=
EXTT6=
EXTT7=
EXTT8=
EXTT9=
EXTT10=
EXTT11=
EXTT12=
EXTT13=
EXTT14=
EXTT15=
EXTT16=
EXTT17=
EXTT18=
EXTT19=
EXTT20=
EXTT21=
EXTT22=
EXTT23=
EXTT24=
PLAYORDER=
